<svg xmlns="http://www.w3.org/2000/svg" viewBox="828 1608 245 150"><defs><style>.a{fill:#022039;}.b{fill:#fff;}.b,.d{opacity:0.3;}.c{fill:#1a1a1a;}.d{fill:#f2f2f2;}.e{fill:#aeaeae;}</style></defs><path class="a" d="M2,0H243a2,2,0,0,1,2,2V150a0,0,0,0,1,0,0H0a0,0,0,0,1,0,0V2A2,2,0,0,1,2,0Z" transform="translate(828 1608)"/><g transform="translate(901 1633)"><circle class="b" cx="49.975" cy="49.975" r="49.975" transform="translate(0 0)"/><g transform="translate(0.125 33.492)"><g transform="translate(9.419 3.22)"><path class="c" d="M64.629,139.072c0-6.617-7.261-13.672-16.219-13.672-8.754,0-14.023,3.4-15.809,8.519,2.079-4.6,7.231-7.612,15.458-7.612,8.959,0,16.219,7.056,16.219,13.672a13.022,13.022,0,0,1-.732,4.45A12.888,12.888,0,0,0,64.629,139.072Z" transform="translate(-32.6 -125.4)"/><path class="c" d="M234.246,138.165c0-7.407-5.533-12.765-16.512-12.765-7.436,0-13.7,4.86-15.634,10.305,2.254-5.065,8.256-9.369,15.253-9.369,10.979,0,16.512,5.387,16.512,12.765a10.448,10.448,0,0,1-.615,3.513A11.032,11.032,0,0,0,234.246,138.165Z" transform="translate(-152.476 -125.4)"/><path class="c" d="M323.776,164.357a3.138,3.138,0,0,0-.176.5c1.054-1.844,3.747-1.757,4.362-2.576a2.044,2.044,0,0,0,.322-.878C327.552,162.22,324.6,162.132,323.776,164.357Z" transform="translate(-238.405 -150.86)"/></g><path class="d" d="M62.019,137.87c0,7.7-5.592,13.643-16.863,13.643-9.31,0-17.156-7.378-17.156-14.55,0-7.7,5.738-13.262,17.156-13.262C54.466,123.671,62.019,130.99,62.019,137.87Z" transform="translate(-19.928 -120.977)"/><path class="d" d="M197.9,137.87c0,7.7,5.592,13.643,16.863,13.643,9.31,0,17.156-7.378,17.156-14.55,0-7.7-5.738-13.262-17.156-13.262C205.453,123.671,197.9,130.99,197.9,137.87Z" transform="translate(-140.087 -120.977)"/><path class="c" d="M100.282,123.564s-.088-1.669-.937-1.991-4.128,0-6.177-.761-8.2-6.412-17.976-6.412c-5.943,0-12.208,2.284-16.219,6.529a7.729,7.729,0,0,1-2.664.761,114.98,114.98,0,0,1-11.886,0,9.275,9.275,0,0,1-2.664-.761c-4.011-4.245-10.276-6.529-16.219-6.529-9.749,0-15.926,5.68-17.976,6.412-2.049.761-5.3.439-6.177.761-.849.322-.937,1.991-.937,1.991-.029.556-.117,3.718.527,4.567s3.689.7,4.538,2.986c.732,1.932,4.333,16.1,20.9,16.1,8.929,0,19.527-5.5,19.527-15.809a15.349,15.349,0,0,0-.527-4.069c1.874-.937,7.993-.937,9.866,0a15.191,15.191,0,0,0-.527,4.069c0,10.305,10.6,15.809,19.528,15.809,16.571,0,20.172-14.17,20.9-16.1.849-2.284,3.894-2.137,4.538-2.986C100.4,127.282,100.312,124.12,100.282,123.564ZM25.656,144.409c-8.959,0-16.512-7.114-16.512-14.023,0-7.407,5.533-12.765,16.512-12.765,8.959,0,16.219,7.056,16.219,13.672C41.876,138.7,36.489,144.409,25.656,144.409Zm49.448,0c-10.832,0-16.219-5.709-16.219-13.116,0-6.617,7.261-13.672,16.219-13.672,10.979,0,16.512,5.387,16.512,12.765C91.617,137.294,84.063,144.409,75.1,144.409Z" transform="translate(-0.428 -114.4)"/><circle class="e" cx="0.703" cy="0.703" r="0.703" transform="translate(2.714 9.134)"/><circle class="e" cx="0.703" cy="0.703" r="0.703" transform="translate(2.714 11.564)"/><circle class="e" cx="0.703" cy="0.703" r="0.703" transform="translate(95.814 9.134)"/><circle class="e" cx="0.703" cy="0.703" r="0.703" transform="translate(95.814 11.564)"/></g></g></svg>