<?xml version="1.0" encoding="utf-8"?>
<!-- Generator: Adobe Illustrator 21.1.0, SVG Export Plug-In . SVG Version: 6.00 Build 0)  -->
<svg version="1.1" id="Layer_1" xmlns="http://www.w3.org/2000/svg" xmlns:xlink="http://www.w3.org/1999/xlink" x="0px" y="0px"
	 viewBox="0 0 277 160" style="enable-background:new 0 0 277 160;" xml:space="preserve">
<style type="text/css">
	.st0{fill:#022039;}
	.st1{opacity:0.3;fill:#FFFFFF;enable-background:new    ;}
	.st2{fill:#1A1A1A;}
	.st3{opacity:0.3;fill:#F2F2F2;enable-background:new    ;}
	.st4{fill:#AEAEAE;}
</style>
<path class="st0" d="M2.3,0h272.5c1.2,0,2.3,1,2.3,2.1V160l0,0H0l0,0V2.1C0,1,1,0,2.3,0z"/>
<g transform="translate(901 1633)">
	<circle class="st1" cx="-762" cy="-1553" r="50"/>
	<g transform="translate(0.125 33.492)">
		<g transform="translate(9.419 3.22)">
			<path class="st2" d="M-780-1589.3c0-6.6-7.3-13.7-16.2-13.7c-8.8,0-14,3.4-15.8,8.5c2.1-4.6,7.2-7.6,15.5-7.6
				c9,0,16.2,7.1,16.2,13.7c0,1.5-0.2,3-0.7,4.5C-780.3-1585.7-779.9-1587.5-780-1589.3z"/>
			<path class="st2" d="M-730.2-1590.2c0-7.4-5.5-12.8-16.5-12.8c-7.4,0-13.7,4.9-15.6,10.3c2.3-5.1,8.3-9.4,15.3-9.4
				c11,0,16.5,5.4,16.5,12.8c0,1.2-0.2,2.4-0.6,3.5C-730.6-1587.2-730.2-1588.7-730.2-1590.2z"/>
			<path class="st2" d="M-726.6-1589.5c-0.1,0.2-0.1,0.3-0.2,0.5c1.1-1.8,3.7-1.8,4.4-2.6c0.2-0.3,0.3-0.6,0.3-0.9
				C-722.9-1591.6-725.8-1591.7-726.6-1589.5z"/>
		</g>
		<path class="st3" d="M-769.9-1586.1c0,7.7-5.6,13.6-16.9,13.6c-9.3,0-17.2-7.4-17.2-14.6c0-7.7,5.7-13.3,17.2-13.3
			C-777.5-1600.3-769.9-1593-769.9-1586.1z"/>
		<path class="st3" d="M-754.2-1586.1c0,7.7,5.6,13.6,16.9,13.6c9.3,0,17.2-7.4,17.2-14.6c0-7.7-5.7-13.3-17.2-13.3
			C-746.6-1600.3-754.2-1593-754.2-1586.1z"/>
		<path class="st2" d="M-712.1-1593.8c0,0-0.1-1.7-0.9-2s-4.1,0-6.2-0.8s-8.2-6.4-18-6.4c-5.9,0-12.2,2.3-16.2,6.5
			c-0.8,0.4-1.7,0.7-2.7,0.8c-4,0.2-7.9,0.2-11.9,0c-0.9-0.1-1.8-0.4-2.7-0.8c-4-4.2-10.3-6.5-16.2-6.5c-9.7,0-15.9,5.7-18,6.4
			c-2,0.8-5.3,0.4-6.2,0.8c-0.8,0.3-0.9,2-0.9,2c0,0.6-0.1,3.7,0.5,4.6c0.6,0.8,3.7,0.7,4.5,3c0.7,1.9,4.3,16.1,20.9,16.1
			c8.9,0,19.5-5.5,19.5-15.8c0-1.4-0.2-2.7-0.5-4.1c1.9-0.9,8-0.9,9.9,0c-0.4,1.3-0.5,2.7-0.5,4.1c0,10.3,10.6,15.8,19.5,15.8
			c16.6,0,20.2-14.2,20.9-16.1c0.8-2.3,3.9-2.1,4.5-3C-712-1590.1-712.1-1593.3-712.1-1593.8z M-786.8-1573c-9,0-16.5-7.1-16.5-14
			c0-7.4,5.5-12.8,16.5-12.8c9,0,16.2,7.1,16.2,13.7C-770.6-1578.7-775.9-1573-786.8-1573z M-737.3-1573c-10.8,0-16.2-5.7-16.2-13.1
			c0-6.6,7.3-13.7,16.2-13.7c11,0,16.5,5.4,16.5,12.8C-720.8-1580.1-728.4-1573-737.3-1573L-737.3-1573z"/>
		<circle class="st4" cx="-808.6" cy="-1593.2" r="0.7"/>
		<circle class="st4" cx="-808.6" cy="-1590.7" r="0.7"/>
		<circle class="st4" cx="-715.5" cy="-1593.2" r="0.7"/>
		<circle class="st4" cx="-715.5" cy="-1590.7" r="0.7"/>
	</g>
</g>
</svg>
