<?xml version="1.0" encoding="utf-8"?>
<!-- Generator: Adobe Illustrator 21.1.0, SVG Export Plug-In . SVG Version: 6.00 Build 0)  -->
<svg version="1.1" id="Layer_1" xmlns="http://www.w3.org/2000/svg" xmlns:xlink="http://www.w3.org/1999/xlink" x="0px" y="0px"
	 viewBox="0 0 267 160" style="enable-background:new 0 0 267 160;" xml:space="preserve">
<style type="text/css">
	.st0{fill:#022039;}
	.st1{opacity:0.3;fill:#FFFFFF;enable-background:new    ;}
	.st2{opacity:0.2;fill:#FFFFFF;enable-background:new    ;}
	.st3{fill:#1A1A1A;}
	.st4{fill:#FFFFFF;}
</style>
<path class="st0" d="M2.2,0h262.6c1.2,0,2.2,1,2.2,2.1V160l0,0H0l0,0V2.1C0,1,1,0,2.2,0z"/>
<g transform="translate(-207 1696)">
	<circle class="st1" cx="341" cy="-1616" r="50"/>
	<g transform="translate(0.028 33.542)">
		<path class="st2" d="M365.3-1635.2c2.9,0.4,5.9,0.3,8.8-0.1c5.4-0.8,8.6-4.5,9.5-10.5c0.4-3.4,0.6-6.8,0.5-10.3
			c-0.2-2.5-1.8-4.6-4.1-5.6c-2.2-0.9-4.5-1.6-6.8-1.9c-6.6-0.7-13.3-0.1-19.7,1.7c-3.8,1-5.3,3.4-5.3,6.7
			C348-1645.1,355.4-1636.6,365.3-1635.2z"/>
		<path class="st2" d="M316.6-1635.2c-2.9,0.4-5.9,0.3-8.8-0.1c-5.4-0.8-8.6-4.5-9.5-10.5c-0.4-3.4-0.6-6.8-0.5-10.3
			c0.2-2.5,1.8-4.6,4.1-5.6c2.2-0.9,4.5-1.6,6.8-1.9c6.6-0.7,13.3-0.1,19.7,1.7c3.8,1,5.3,3.4,5.3,6.7
			C334-1645.3,326.4-1636.3,316.6-1635.2z"/>
		<path class="st3" d="M389.7-1663.8c-2.9-0.6-5.9-1.3-8.8-1.7c-2.8-0.4-5.6-0.4-8.4-0.5c-9.1-0.3-17.8,1.6-26.5,3.9
			c-3.2,0.9-6.7,0.9-9.9,0c-8.7-2.3-17.5-4.2-26.5-3.9c-2.8,0.1-5.7,0.1-8.4,0.5c-3,0.4-5.9,1.1-8.8,1.7c-0.7,0.1-1.3,0.4-1.1,1.4
			c0.2,1.4,0.3,2.8,0.5,4.2c0.1,0.4,0.4,0.8,0.8,1.1c0.9,0.4,1.5,1.2,1.7,2.2c1,4.4,2,8.7,3.3,13c1.1,4.2,4.7,7.3,9,7.9
			c1.5,0.3,3,0.5,4.5,0.6c5.6,0.6,10.9-0.3,15.6-3.7c4.3-3.1,6.8-7.5,8.8-12.2c0.6-1.6,1.4-3.1,2.2-4.5c1.1-1.7,2.3-2.5,3.5-2.3
			c1.2-0.2,2.4,0.6,3.5,2.3c0.9,1.4,1.6,2.9,2.2,4.5c2,4.8,4.5,9.2,8.8,12.2c4.7,3.4,10,4.2,15.6,3.7c1.5-0.1,3-0.4,4.5-0.6
			c4.3-0.6,7.9-3.7,9-7.9c1.3-4.3,2.3-8.7,3.3-13c0.2-1,0.8-1.8,1.7-2.2c0.4-0.2,0.7-0.6,0.8-1.1c0.2-1.4,0.3-2.8,0.5-4.2
			C391-1663.5,390.4-1663.7,389.7-1663.8z M316.6-1635.8c-2.8,0.3-5.6,0.3-8.4-0.1c-5.2-0.8-8.2-4.3-9.1-10
			c-0.4-3.3-0.5-6.5-0.5-9.8c0.2-2.4,1.7-4.4,4-5.3c2.1-0.9,4.3-1.5,6.5-1.8c6.3-0.6,12.7-0.1,18.8,1.6c3.6,1,5,3.2,5.1,6.4
			C333.1-1645.3,326.1-1637.1,316.6-1635.8z M382.8-1646c-0.9,5.7-3.9,9.2-9.1,10c-2.8,0.4-5.6,0.4-8.4,0.1
			c-9.5-1.3-16.5-9.5-16.4-19.1c0.1-3.2,1.4-5.4,5.1-6.4c6.1-1.7,12.5-2.2,18.8-1.6c2.2,0.3,4.4,0.9,6.5,1.8c2.2,0.9,3.7,3,4,5.3
			C383.3-1652.5,383.2-1649.2,382.8-1646z"/>
		<ellipse class="st4" cx="387" cy="-1661.1" rx="2.1" ry="0.7"/>
		<ellipse class="st4" cx="294.9" cy="-1661.1" rx="2.1" ry="0.7"/>
	</g>
</g>
</svg>
