<svg xmlns="http://www.w3.org/2000/svg" viewBox="-280 1671 245 142"><defs><style>.a{fill:#022039;}.b,.c,.e{fill:#fff;}.b{opacity:0.3;}.c,.d{fill-rule:evenodd;}.c{opacity:0.2;}.d{fill:#1a1a1a;}</style></defs><path class="a" d="M2,0H243a2,2,0,0,1,2,2V142a0,0,0,0,1,0,0H0a0,0,0,0,1,0,0V2A2,2,0,0,1,2,0Z" transform="translate(-280 1671)"/><g transform="translate(-207 1692)"><circle class="b" cx="50" cy="50" r="50" transform="translate(0 0)"/><g transform="translate(0.028 33.542)"><path class="c" d="M212.355,150.567a32.686,32.686,0,0,0,8.787-.088c5.419-.849,8.553-4.511,9.49-10.516a87.145,87.145,0,0,0,.527-10.281,6.725,6.725,0,0,0-4.13-5.595,25.216,25.216,0,0,0-6.8-1.875,53.251,53.251,0,0,0-19.713,1.67c-3.808,1.025-5.272,3.368-5.331,6.737A19.89,19.89,0,0,0,212.355,150.567Z" transform="translate(-138.042 -119.756)"/><path class="c" d="M42.142,150.567a32.686,32.686,0,0,1-8.787-.088c-5.448-.849-8.582-4.511-9.49-10.516a87.145,87.145,0,0,1-.527-10.281,6.725,6.725,0,0,1,4.13-5.595,25.216,25.216,0,0,1,6.8-1.875,53.251,53.251,0,0,1,19.713,1.67c3.808,1.025,5.272,3.368,5.331,6.737C59.482,140.491,51.925,149.424,42.142,150.567Z" transform="translate(-16.511 -119.756)"/><path class="d" d="M98.809,116.706c-2.929-.586-5.858-1.289-8.846-1.67-2.783-.351-5.624-.41-8.436-.5-9.051-.264-17.838,1.582-26.538,3.9a19.335,19.335,0,0,1-9.9,0c-8.7-2.343-17.487-4.159-26.538-3.9-2.812.088-5.653.146-8.436.5-2.958.381-5.888,1.054-8.846,1.67-.7.146-1.318.381-1.142,1.377.234,1.406.293,2.841.527,4.247a1.615,1.615,0,0,0,.791,1.054,3.039,3.039,0,0,1,1.728,2.168c1.025,4.364,2.021,8.729,3.281,13.035a10.8,10.8,0,0,0,8.992,7.909c1.494.264,3.017.5,4.511.644,5.595.557,10.9-.293,15.583-3.661,4.277-3.1,6.825-7.469,8.787-12.244a29.013,29.013,0,0,1,2.226-4.482c1.113-1.728,2.314-2.46,3.486-2.255,1.172-.205,2.373.557,3.486,2.255a26.616,26.616,0,0,1,2.226,4.482c1.963,4.774,4.511,9.168,8.787,12.244,4.657,3.368,9.959,4.218,15.583,3.661,1.523-.146,3.017-.352,4.511-.644a10.8,10.8,0,0,0,8.992-7.909c1.26-4.306,2.255-8.67,3.281-13.035a3.039,3.039,0,0,1,1.728-2.168,1.688,1.688,0,0,0,.791-1.054c.234-1.406.293-2.841.527-4.247C100.127,117.058,99.512,116.853,98.809,116.706Zm-73.14,27.973a32.312,32.312,0,0,1-8.407-.088c-5.185-.82-8.172-4.306-9.051-10.047a78.666,78.666,0,0,1-.5-9.813,6.391,6.391,0,0,1,3.954-5.331,24.107,24.107,0,0,1,6.5-1.787,50.855,50.855,0,0,1,18.8,1.582c3.632,1,5.038,3.222,5.1,6.444A19,19,0,0,1,25.669,144.679ZM91.9,134.544c-.879,5.712-3.866,9.227-9.051,10.047a31.067,31.067,0,0,1-8.407.088,19.031,19.031,0,0,1-16.4-19.069c.059-3.222,1.435-5.448,5.1-6.444a50.908,50.908,0,0,1,18.8-1.582,24.4,24.4,0,0,1,6.5,1.787,6.43,6.43,0,0,1,3.954,5.331A78.594,78.594,0,0,1,91.9,134.544Z" transform="translate(-0.096 -114.513)"/><ellipse class="e" cx="2.08" cy="0.703" rx="2.08" ry="0.703" transform="translate(93.908 4.243)"/><ellipse class="e" cx="2.08" cy="0.703" rx="2.08" ry="0.703" transform="translate(1.846 4.243)"/></g></g></svg>