<svg id="Capa_1" data-name="Capa 1" xmlns="http://www.w3.org/2000/svg" viewBox="0 0 112.2 112.2"><defs><style>.cls-1{fill:#55acee;}.cls-2{fill:#f1f2f2;}</style></defs><title>twitter</title><circle class="cls-1" cx="56.1" cy="56.1" r="56.1"/><path class="cls-2" d="M90.46,40.32a26.75,26.75,0,0,1-7.7,2.11A13.45,13.45,0,0,0,88.66,35a26.84,26.84,0,0,1-8.51,3.25A13.42,13.42,0,0,0,57.29,50.49a38.06,38.06,0,0,1-27.64-14,13.42,13.42,0,0,0,4.15,17.9,13.31,13.31,0,0,1-6.07-1.68c0,.06,0,.11,0,.17A13.42,13.42,0,0,0,38.48,66a13.46,13.46,0,0,1-6.06.23A13.42,13.42,0,0,0,45,75.57,27.07,27.07,0,0,1,25.1,81.12a37.93,37.93,0,0,0,20.55,6c24.66,0,38.15-20.43,38.15-38.15,0-.58,0-1.16,0-1.73a27.19,27.19,0,0,0,6.69-6.94Z" transform="translate(0)"/></svg>